# AST/ASF file generated using VICON BodyLanguage
# -----------------------------------------------
:version 1.10
:name VICON
:units
  mass 1.0
  length 0.45
  angle deg
:documentation
   .ast/.asf automatically generated from VICON data using
   VICON BodyBuilder and BodyLanguage model FoxedUp or BRILLIANT.MOD
:root
   order TX TY TZ RX RY RZ
   axis XYZ
   position 0 0 0  
   orientation 0 0 0 
:bonedata
  begin
     id 1 
     name lhipjoint
     direction 0.522423 -0.726805 0.445902 
     length 2.25074 
     axis 0 0 0  XYZ
  end
  begin
     id 2 
     name lfemur
     direction 0.34202 -0.939693 0  
     length 6.54609  
     axis 0 0 20  XYZ
    dof rx ry rz
    limits (-160.0 20.0)
           (-70.0 70.0)
           (-60.0 70.0)
  end
  begin
     id 3 
     name ltibia
     direction 0.34202 -0.939693 0   
     length 7.7528   
     axis 0 0 20   XYZ
    dof rx
    limits (-10.0 170.0)
  end
  begin
     id 4 
     name lfoot
     direction 0.143696 -0.394801 0.90746   
     length 1.73269   
     axis -90 7.62852e-016 20   XYZ
    dof rx rz
    limits (-45.0 90.0)
           (-70.0 20.0)
  end
  begin
     id 5 
     name ltoes
     direction 1.53633e-011 -4.21912e-011 1   
     length 0.858383   
     axis -90 7.62852e-016 20   XYZ
    dof rx
    limits (-90.0 20.0)
  end
  begin
     id 6 
     name rhipjoint
     direction -0.515943 -0.73016 0.447961   
     length 2.2404  
     axis 0 0 0  XYZ 
  end
  begin
     id 7 
     name rfemur
     direction -0.34202 -0.939693 0   
     length 6.84377   
     axis 0 0 -20   XYZ
    dof rx ry rz
    limits (-160.0 20.0)
           (-70.0 70.0)
           (-70.0 60.0)
  end
  begin
     id 8 
     name rtibia
     direction -0.34202 -0.939693 0   
     length 7.57596   
     axis 0 0 -20   XYZ
    dof rx
    limits (-10.0 170.0)
 end
 begin
     id 9 
     name rfoot
     direction -0.0999372 -0.274575 0.956358   
     length 1.78783  
     axis -90 -7.62852e-016 -20   XYZ
    dof rx rz
    limits (-45.0 90.0)
           (-20.0 70.0)
  end
  begin
     id 10 
     name rtoes
     direction -1.53535e-011 -4.21895e-011 1   
     length 0.898614   
     axis -90 -7.62852e-016 -20   XYZ
    dof rx
    limits (-90.0 20.0)
  end
  begin
     id 11 
     name lowerback
     direction -0.011775 0.996164 -0.0867116   
     length 1.91499   
     axis 0 0 0   XYZ
    dof rx ry rz
    limits (-20.0 45.0)
           (-30.0 30.0)
           (-30.0 30.0)
  end
  begin
     id 12 
     name upperback
     direction -0.00189771 0.999673 -0.0254833   
     length 1.92213   
     axis 0 0 0   XYZ
    dof rx ry rz
    limits (-20.0 45.0)
           (-30.0 30.0)
           (-30.0 30.0)
  end
  begin
     id 13 
     name thorax
     direction 0.00335995 0.999878 0.0152401   
     length 1.93138   
     axis 0 0 0   XYZ
    dof rx ry rz
    limits (-20.0 45.0)
           (-30.0 30.0)
           (-30.0 30.0)
  end
  begin
     id 14 
     name lowerneck
     direction 0.00233191 0.998509 0.0545404   
     length 1.59408   
     axis 0 0 0   XYZ
    dof rx ry rz
    limits (-20.0 45.0)
           (-30.0 30.0)
           (-30.0 30.0)
  end
  begin
     id 15 
     name upperneck
     direction 0.07881 0.9956 -0.0506934   
     length 1.59344   
     axis 0 0 0   XYZ
    dof rx ry rz
    limits (-20.0 45.0)
           (-30.0 30.0)
           (-30.0 30.0)
  end
  begin
     id 16
     name head
     direction 0.0261681 0.999378 -0.0236299  
     length 1.60935  
     axis 0 0 0   XYZ
    dof rx ry rz
    limits (-20.0 45.0)
           (-30.0 30.0)
           (-30.0 30.0)
  end
  begin
     id 17 
     name lclavicle
     direction 0.96643 0.252035 0.0499195  
     length 3.82153  
     axis 0 0 0   XYZ
    dof ry rz
    limits (-20.0 10.0)
           (0.0 20.0)
  end
  begin
     id 18 
     name lhumerus
     direction 1 -4.48967e-011 -2.01614e-018   
     length 4.87796   
     axis 180 -30 -90   XYZ
    dof rx ry rz
    limits (-60.0 90.0)
           (-90.0 90.0)
           (-90.0 90.0)
  end
  begin
     id 19
     name lradius
     direction 1 -4.48958e-011 3.1409e-027   
     length 3.23169   
     axis 180 -30 -90   XYZ
    dof rx
    limits (-10.0 170.0)
  end
  begin
     id 20
     name lwrist
     direction 1 -4.48924e-011 1.0365e-027   
     length 1.61584   
     axis -2.56395e-016 90 90   XYZ
    dof ry
    limits (-180.0 0.0)
 end
  begin
     id 21 
     name lhand
     direction 1 -4.49055e-011 2.09488e-027   
     length 0.731324   
     axis -1.32723e-015 90 90   XYZ
    dof rx rz
    limits (-90.0 90.0)
           (-45.0 45.0)
  end
  begin
     id 22 
     name lfingers
     direction 1 -4.48935e-011 4.14981e-027   
     length 0.589612   
     axis -2.6545e-015 90 90   XYZ
    dof rx
    limits (0.0 90.0)
  end
  begin
     id 23
     name lthumb
     direction 0.707107 -6.35097e-011 0.707107   
     length 0.846569   
     axis -90 45 5.05613e-014   XYZ
    dof rx rz
    limits (-45.0 45.0)
           (-45.0 45.0)
  end
  begin
     id 24 
     name rclavicle
     direction -0.979337 0.201016 0.0221522   
     length 3.73827  
     axis 0 0 0   XYZ 
    dof ry rz
    limits (-10.0 20.0)
           (-20.0 0.0)
  end
  begin
     id 25 
     name rhumerus
     direction -1 -4.48971e-011 1.65907e-027  
     length 4.9143   
     axis 180 30 90   XYZ
    dof rx ry rz
    limits (-90.0 60.0)
           (-90.0 90.0)
           (-90.0 90.0)
  end
  begin
     id 26 
     name rradius
     direction -1 -4.4894e-011 2.17871e-028   
     length 3.29093   
     axis 180 30 90   XYZ
    dof rx
    limits (-10.0 170.0)
  end
  begin
     id 27 
     name rwrist
     direction -1 -4.48971e-011 1.04038e-027   
     length 1.64546   
     axis -2.56395e-016 -90 -90   XYZ
    dof ry
    limits (-180.0 0.0)
  end
  begin
     id 28
     name rhand
     direction -1 -4.49017e-011 2.08843e-027   
     length 0.54512   
     axis -1.32723e-015 -90 -90   XYZ
    dof rx rz
    limits (-90.0 90.0)
           (-45.0 45.0)
  end
  begin
     id 29
     name rfingers
     direction -1 -4.48918e-011 4.1439e-027   
     length 0.43949   
     axis -2.6545e-015 -90 -90   XYZ
    dof rx
    limits (0.0 90.0)
  end
  begin
     id 30
     name rthumb
     direction -0.707107 -6.35065e-011 0.707107   
     length 0.631022   
     axis -90 -45 -5.05613e-014   XYZ
    dof rx rz
    limits (-45.0 45.0)
           (-45.0 45.0)
  end
:hierarchy
  begin
    root lhipjoint rhipjoint lowerback
    lhipjoint lfemur
    lfemur ltibia
    ltibia lfoot
    lfoot ltoes
    rhipjoint rfemur
    rfemur rtibia
    rtibia rfoot
    rfoot rtoes
    lowerback upperback
    upperback thorax
    thorax lowerneck lclavicle rclavicle
    lowerneck upperneck
    upperneck head
    lclavicle lhumerus
    lhumerus lradius
    lradius lwrist
    lwrist lhand lthumb
    lhand lfingers
    rclavicle rhumerus
    rhumerus rradius
    rradius rwrist
    rwrist rhand rthumb
    rhand rfingers
  end

#!OML:ASF H:\BreakDance\Project 1\Capture day 1\Session 1\Male.ASF
:FULLY-SPECIFIED
:DEGREES
127
root 1.71317 14.2618 -1.15064 11.8442 -88.1906 -15.0115
lowerback 10.2052 0.365399 -1.13771
upperback 4.31548 0.220157 -0.400444
thorax -1.24062 0.03769 0.203148
lowerneck -7.72154 -2.10135 -3.40471
upperneck 5.01346 -3.2465 10.1435
head 2.98047 -1.32317 3.46977
rclavicle 1.49089e-015 -7.95139e-016
rhumerus 18.4715 4.48379 -77.0464
rradius 89.184
rwrist 6.20481
rhand -1.81426 -51.9159
rfingers 7.12502
rthumb 23.8515 -80.455
lclavicle 1.49089e-015 -7.95139e-016
lhumerus 25.1367 -7.31064 78.4979
lradius 81.3524
lwrist -27.9118
lhand 13.5781 -16.2427
lfingers 7.12502
lthumb 38.5116 9.41548
rfemur -36.0705 -20.7769 4.29501
rtibia 69.2841
rfoot -26.2932 1.02462
rtoes -18.0955
lfemur -39.8184 20.5645 -7.27947
ltibia 72.4853
lfoot -30.0102 -3.67602
ltoes -17.3097
128
root 1.7161 14.2635 -1.14872 8.09744 -88.1974 -11.2546
lowerback 10.1757 0.363793 -1.27463
upperback 4.3145 0.205745 -0.40869
thorax -1.22573 0.0292051 0.273276
lowerneck -7.70968 -2.09549 -3.4591
upperneck 5.02311 -3.23783 10.1942
head 2.98254 -1.31824 3.49485
rclavicle -4.96962e-017 5.96354e-016
rhumerus 18.4813 4.52934 -76.9354
rradius 89.1945
rwrist 6.21792
rhand -1.77128 -51.915
rfingers 7.12502
rthumb 23.8928 -80.4487
lclavicle -4.96962e-017 5.96354e-016
lhumerus 25.1036 -7.28349 78.4964
lradius 81.4022
lwrist -27.8483
lhand 13.771 -16.2575
lfingers 7.12502
lthumb 38.6936 9.34959
rfemur -36.071 -20.8197 4.15669
rtibia 69.2569
rfoot -26.2728 1.03567
rtoes -18.2053
lfemur -39.8078 20.5009 -7.43048
ltibia 72.4591
lfoot -29.8718 -3.89667
ltoes -16.4518
129
root 1.71937 14.2647 -1.14997 8.34309 -88.2053 -11.4908
lowerback 10.2071 0.369938 -1.28281
upperback 4.26696 0.213786 -0.411601
thorax -1.29232 0.0344377 0.273841
lowerneck -7.55859 -2.11562 -3.49694
upperneck 4.97369 -3.26711 10.2907
head 2.94725 -1.33596 3.53007
rclavicle 7.45443e-016 3.77691e-015
rhumerus 18.3649 4.54337 -76.9064
rradius 89.237
rwrist 6.23117
rhand -1.76355 -51.8317
rfingers 7.12502
rthumb 23.9002 -80.3645
lclavicle 7.45443e-016 3.77691e-015
lhumerus 24.9832 -7.3071 78.4801
lradius 81.4339
lwrist -27.8712
lhand 13.7427 -16.2803
lfingers 7.12502
lthumb 38.6669 9.33435
rfemur -36.0955 -20.7791 4.1931
rtibia 69.2133
rfoot -26.2215 0.915316
rtoes -18.514
lfemur -39.8098 20.5168 -7.41877
ltibia 72.4437
lfoot -29.8155 -4.11277
ltoes -16.1129
130
root 1.723 14.2666 -1.14941 11.1918 -88.2112 -14.3492
lowerback 10.2256 0.368376 -1.20044
upperback 4.27114 0.219544 -0.384934
thorax -1.29797 0.0378161 0.254397
lowerneck -7.5408 -2.1503 -3.47668
upperneck 4.98224 -3.31246 10.2408
head 2.94879 -1.35986 3.5092
rclavicle 4.62174e-015 -7.35503e-015
rhumerus 18.3903 4.52481 -76.9214
rradius 89.1825
rwrist 6.29093
rhand -1.65218 -51.7162
rfingers 7.12502
rthumb 24.007 -80.2349
lclavicle 4.62174e-015 -7.35503e-015
lhumerus 24.9902 -7.30082 78.4862
lradius 81.3844
lwrist -27.8928
lhand 13.6062 -16.2813
lfingers 7.12502
lthumb 38.5381 9.3695
rfemur -36.1 -20.7124 4.3004
rtibia 69.1642
rfoot -26.1717 0.887966
rtoes -18.5244
lfemur -39.8085 20.5708 -7.32462
ltibia 72.4341
lfoot -29.8574 -4.09801
ltoes -16.1533
131
root 1.72745 14.2685 -1.14683 14.4061 -88.1915 -17.6041
lowerback 10.2463 0.353907 -1.05736
upperback 4.32599 0.211878 -0.368726
thorax -1.25191 0.0338187 0.191557
lowerneck -7.66913 -2.17162 -3.51244
upperneck 5.04434 -3.34464 10.2813
head 2.99225 -1.36998 3.52494
rclavicle -2.03754e-015 -5.36719e-015
rhumerus 18.5057 4.49949 -76.9328
rradius 89.0924
rwrist 6.34015
rhand -1.56623 -51.5924
rfingers 7.12502
rthumb 24.0894 -80.1003
lclavicle -2.03754e-015 -5.36719e-015
lhumerus 25.0914 -7.28482 78.4536
lradius 81.3405
lwrist -27.841
lhand 13.6105 -16.3017
lfingers 7.12502
lthumb 38.5421 9.34797
rfemur -36.0434 -20.6821 4.39878
rtibia 69.1181
rfoot -26.162 0.943884
rtoes -18.4509
lfemur -39.7921 20.5662 -7.21046
ltibia 72.4273
lfoot -29.9871 -4.0139
ltoes -16.4671
132
root 1.7335 14.2684 -1.14492 14.7776 -88.204 -17.9912
lowerback 10.2929 0.335257 -1.02773
upperback 4.32503 0.188511 -0.381642
thorax -1.27799 0.022459 0.164037
lowerneck -7.68451 -2.14985 -3.61074
upperneck 5.07833 -3.32289 10.4538
head 3.00829 -1.35429 3.59518
rclavicle -4.47266e-016 2.78299e-015
rhumerus 18.512 4.55766 -76.9427
rradius 89.0756
rwrist 6.318
rhand -1.60788 -51.5772
rfingers 7.12502
rthumb 24.0494 -80.0903
lclavicle -4.47266e-016 2.78299e-015
lhumerus 25.0653 -7.23426 78.4033
lradius 81.342
lwrist -27.8763
lhand 13.6026 -16.3931
lfingers 7.12502
lthumb 38.5347 9.25861
rfemur -36.056 -20.6636 4.40812
rtibia 69.086
rfoot -26.0973 0.989929
rtoes -18.3086
lfemur -39.8136 20.5526 -7.21103
ltibia 72.428
lfoot -30.054 -3.9312
ltoes -16.622
133
root 1.73778 14.2685 -1.1438 13.9459 -88.2863 -17.1606
lowerback 10.3464 0.340445 -1.08858
upperback 4.27596 0.189253 -0.404138
thorax -1.35824 0.0234841 0.174744
lowerneck -7.56661 -2.13486 -3.62602
upperneck 5.07812 -3.30581 10.49
head 2.98833 -1.34842 3.61052
rclavicle 6.80837e-015 -4.77083e-015
rhumerus 18.4741 4.62282 -76.9668
rradius 89.062
rwrist 6.29338
rhand -1.66333 -51.6231
rfingers 7.12502
rthumb 23.9963 -80.1432
lclavicle 6.80837e-015 -4.77083e-015
lhumerus 24.9406 -7.19629 78.3605
lradius 81.3464
lwrist -27.9601
lhand 13.4551 -16.4849
lfingers 7.12502
lthumb 38.3955 9.20567
rfemur -36.1068 -20.5814 4.36374
rtibia 69.0752
rfoot -26.0244 1.09898
rtoes -17.0443
lfemur -39.8041 20.5996 -7.26523
ltibia 72.4244
lfoot -30.0803 -3.96174
ltoes -16.4128
134
root 1.73964 14.2695 -1.14364 13.165 -88.3203 -16.4082
lowerback 10.3769 0.341337 -1.13335
upperback 4.27466 0.184893 -0.420201
thorax -1.37624 0.0209166 0.183738
lowerneck -7.50348 -2.14585 -3.7137
upperneck 5.06384 -3.32216 10.6181
head 2.97862 -1.35629 3.6639
rclavicle -7.45443e-016 3.57812e-015
rhumerus 18.4927 4.64891 -76.9617
rradius 89.0378
rwrist 6.25999
rhand -1.72872 -51.5482
rfingers 7.12502
rthumb 23.9336 -80.0766
lclavicle -7.45443e-016 3.57812e-015
lhumerus 24.9564 -7.19477 78.3193
lradius 81.2938
lwrist -27.9684
lhand 13.4306 -16.4397
lfingers 7.12502
lthumb 38.3724 9.25721
rfemur -36.0852 -20.5375 4.32243
rtibia 69.0692
rfoot -26.016 1.11571
rtoes -16.0855
lfemur -39.7588 20.6158 -7.2913
ltibia 72.4154
lfoot -30.1654 -3.92403
ltoes -16.8558
135
root 1.74129 14.2686 -1.1444 11.7057 -88.2944 -15.0072
lowerback 10.4058 0.336633 -1.20229
upperback 4.31925 0.170215 -0.401387
thorax -1.34585 0.0115615 0.243589
lowerneck -7.59574 -2.17643 -3.75393
upperneck 5.10787 -3.36325 10.6385
head 3.01115 -1.37281 3.67405
rclavicle 3.97569e-016 -1.05356e-014
rhumerus 18.5224 4.66513 -76.8936
rradius 89.0257
rwrist 6.18297
rhand -1.77292 -51.5158
rfingers 7.12502
rthumb 23.8912 -80.0497
lclavicle 3.97569e-016 -1.05356e-014
lhumerus 25.06 -7.19379 78.3673
lradius 81.2183
lwrist -27.9409
lhand 13.4882 -16.3568
lfingers 7.12502
lthumb 38.4267 9.32504
rfemur -36.0012 -20.5707 4.26772
rtibia 69.0692
rfoot -26.0647 1.00762
rtoes -16.4641
lfemur -39.6931 20.5676 -7.31016
ltibia 72.3926
lfoot -30.1787 -3.79928
ltoes -17.154
136
root 1.74402 14.268 -1.14449 10.6964 -88.2981 -14.0036
lowerback 10.4229 0.353214 -1.21632
upperback 4.30989 0.190327 -0.415556
thorax -1.36515 0.0217721 0.234503
lowerneck -7.6129 -2.20058 -3.67968
upperneck 5.14562 -3.39709 10.529
head 3.02443 -1.39021 3.62625
rclavicle 2.18663e-015 1.39149e-015
rhumerus 18.4459 4.61656 -76.8927
rradius 89.0242
rwrist 6.1568
rhand -1.86276 -51.5441
rfingers 7.12502
rthumb 23.805 -80.0893
lclavicle 2.18663e-015 1.39149e-015
lhumerus 25.0372 -7.26141 78.3878
lradius 81.2227
lwrist -27.894
lhand 13.5156 -16.3497
lfingers 7.12502
lthumb 38.4526 9.32498
rfemur -36.0113 -20.5773 4.23459
rtibia 69.0801
rfoot -26.0874 1.03129
rtoes -15.8839
lfemur -39.6937 20.5473 -7.34162
ltibia 72.37
lfoot -30.1209 -3.78184
ltoes -16.9451
137
root 1.74685 14.2698 -1.14405 7.36259 -88.2925 -10.6401
lowerback 10.4234 0.36301 -1.29365
upperback 4.24822 0.196536 -0.46678
thorax -1.42956 0.0261559 0.224258
lowerneck -7.39186 -2.2133 -3.74631
upperneck 5.08723 -3.41515 10.6432
head 2.97493 -1.40469 3.67291
rclavicle -3.8763e-015 1.59028e-015
rhumerus 18.3221 4.57613 -76.9331
rradius 89.0043
rwrist 6.20612
rhand -1.96233 -51.5409
rfingers 7.12502
rthumb 23.7095 -80.0985
lclavicle -3.8763e-015 1.59028e-015
lhumerus 24.9028 -7.3205 78.3467
lradius 81.2888
lwrist -27.9194
lhand 13.6042 -16.4215
lfingers 7.12502
lthumb 38.5362 9.22976
rfemur -36.0728 -20.6116 4.12034
rtibia 69.0896
rfoot -26.0446 1.18515
rtoes -14.7021
lfemur -39.7407 20.5036 -7.4813
ltibia 72.3421
lfoot -30.1095 -3.76789
ltoes -17.1189
138
root 1.74892 14.2697 -1.14324 3.16347 -88.2437 -6.4392
lowerback 10.4106 0.355438 -1.42261
upperback 4.22164 0.174721 -0.486957
thorax -1.45007 0.0150188 0.278411
lowerneck -7.26019 -2.21064 -3.89551
upperneck 5.09288 -3.41309 10.8157
head 2.96029 -1.40462 3.75168
rclavicle 5.46658e-016 2.78299e-015
rhumerus 18.2989 4.58011 -76.8938
rradius 88.9668
rwrist 6.21598
rhand -1.98424 -51.5356
rfingers 7.12502
rthumb 23.6885 -80.096
lclavicle 5.46658e-016 2.78299e-015
lhumerus 24.8733 -7.31781 78.4009
lradius 81.2629
lwrist -28.0333
lhand 13.7419 -16.5195
lfingers 7.12502
lthumb 38.6661 9.09535
rfemur -36.0517 -20.7043 3.96161
rtibia 69.0986
rfoot -26.032 1.23606
rtoes -14.5562
lfemur -39.752 20.4165 -7.64635
ltibia 72.3143
lfoot -30.1548 -3.7805
ltoes -17.2349
139
root 1.75 14.2665 -1.14283 5.26559 -88.2468 -8.55133
lowerback 10.3695 0.346446 -1.34842
upperback 4.2293 0.171444 -0.469655
thorax -1.41951 0.0138052 0.25505
lowerneck -7.24812 -2.18182 -3.94757
upperneck 5.14587 -3.37802 10.8672
head 2.97318 -1.38555 3.77814
rclavicle 1.88845e-015 1.07344e-014
rhumerus 18.2856 4.59827 -76.8708
rradius 89.0037
rwrist 6.21916
rhand -1.96968 -51.566
rfingers 7.12502
rthumb 23.7025 -80.1245
lclavicle 1.88845e-015 1.07344e-014
lhumerus 24.8817 -7.31547 78.4154
lradius 81.236
lwrist -28.0218
lhand 13.8749 -16.5211
lfingers 7.12502
lthumb 38.7916 9.05829
rfemur -36.042 -20.7137 4.03336
rtibia 69.1039
rfoot -26.0466 1.16175
rtoes -14.8659
lfemur -39.7315 20.4358 -7.56686
ltibia 72.312
lfoot -30.111 -3.81276
ltoes -16.7524
140
root 1.75049 14.2672 -1.14268 10.847 -88.3112 -14.1776
lowerback 10.3804 0.37028 -1.17656
upperback 4.24494 0.219447 -0.442604
thorax -1.40947 0.03868 0.180909
lowerneck -7.24051 -2.17792 -3.89167
upperneck 5.16796 -3.37722 10.8251
head 2.97674 -1.38521 3.75604
rclavicle 4.07509e-015 -7.15625e-015
rhumerus 18.1944 4.58357 -76.8859
rradius 89.0764
rwrist 6.26155
rhand -1.9403 -51.6186
rfingers 7.12502
rthumb 23.7307 -80.1734
lclavicle 4.07509e-015 -7.15625e-015
lhumerus 24.81 -7.35878 78.3732
lradius 81.3308
lwrist -27.9266
lhand 13.996 -16.3883
lfingers 7.12502
lthumb 38.9057 9.15863
rfemur -36.0255 -20.6019 4.21786
rtibia 69.0771
rfoot -26.0385 1.13425
rtoes -14.7872
lfemur -39.6389 20.5504 -7.35117
ltibia 72.2981
lfoot -30.0184 -3.75256
ltoes -16.5134
